<?xml version="1.0" encoding="utf-8"?>
<!DOCTYPE svg PUBLIC "-//W3C//DTD SVG 1.1//EN" "../../../../../www.w3.org/Graphics/SVG/1.1/DTD/svg11.dtd">
<svg version="1.0" id="Layer_1" xmlns="http://www.w3.org/2000/svg" xmlns:xlink="../../../../../www.w3.org/1999/xlink" x="0px" y="0px"
	 width="90px" height="84px" viewBox="0 0 90 84" enable-background="new 0 0 90 84" xml:space="preserve">
<defs>
	<mask id="comment_mask" maskUnits="objectBoundingBox">
		<path fill="#FFFFFF" d="M84,8.75V3c0-2-1-3-3-3H3C1,0,0,1,0,3v78c0,2,1,3,3,3h78c2,0,3-1,3-3V20.75l6-6L84,8.75z"/>
	</mask>
</defs>
<g>
	<path d="M84,8.75V3c0-2-1-3-3-3H3C1,0,0,1,0,3v78c0,2,1,3,3,3h78c2,0,3-1,3-3V20.75l6-6L84,8.75z"/>
</g>
</svg>
